<!-- Generated by IcoMoon.io -->
<svg version="1.1" xmlns="http://www.w3.org/2000/svg" width="32" height="32" viewBox="0 0 32 32">
<path d="M26.667 12c-0.492 0-0.954 0.134-1.35 0.368-0.149-1.331-1.281-2.368-2.65-2.368-0.651 0-1.249 0.236-1.714 0.628-0.467-0.775-1.316-1.295-2.286-1.295-0.485 0-0.941 0.13-1.333 0.358v-7.025c-0-1.471-1.196-2.667-2.667-2.667s-2.667 1.196-2.667 2.667v17.843c0 0.336-0.221 0.508-0.316 0.567s-0.351 0.179-0.648 0.029l-4.281-2.141c-0.39-0.195-0.827-0.298-1.263-0.298-1.557 0-2.824 1.267-2.824 2.824v0.509c0 0.185 0.077 0.361 0.212 0.488l7.695 7.182c1.611 1.503 3.711 2.331 5.913 2.331h4.18c4.779 0 8.667-3.888 8.667-8.667v-8.667c0-1.471-1.196-2.667-2.667-2.667zM28 23.333c0 4.044-3.29 7.333-7.333 7.333h-4.18c-1.863 0-3.641-0.7-5.003-1.973l-7.483-6.984v-0.219c0-0.822 0.669-1.491 1.491-1.491 0.23 0 0.461 0.055 0.667 0.158l4.281 2.141c0.624 0.313 1.352 0.279 1.946-0.087 0.594-0.367 0.949-1.003 0.949-1.702v-17.843c0-0.735 0.598-1.333 1.333-1.333s1.333 0.598 1.333 1.333v10c0 0.368 0.298 0.667 0.667 0.667s0.667-0.298 0.667-0.667v-0.667c0-0.735 0.598-1.333 1.333-1.333s1.333 0.598 1.333 1.333v0.667c0 0.001 0 0.003 0 0.004v0.001c0.003 0.366 0.3 0.662 0.667 0.662 0.369 0 0.667-0.298 0.667-0.667v-0.010c0.005-0.73 0.603-1.323 1.333-1.323 0.735 0 1.333 0.598 1.333 1.333v2c0 0.368 0.298 0.667 0.667 0.667s0.667-0.298 0.667-0.667c0-0.735 0.598-1.333 1.333-1.333s1.333 0.598 1.333 1.333v8.667z"></path>
</svg>
